<svg width="620" height="620" viewBox="0 0 620 620" fill="none" xmlns="http://www.w3.org/2000/svg">
<g filter="url(#filter0_d_2_6)">
<path opacity="0.91" d="M60 310H185C254.036 310 310 365.964 310 435V560H120C86.8629 560 60 533.137 60 500V310Z" fill="url(#paint0_linear_2_6)"/>
<circle cx="310" cy="310" r="165" stroke="black" stroke-width="170"/>
<circle cx="310" cy="310" r="178.5" stroke="#0E0E0E" stroke-width="121"/>
<circle cx="310" cy="310" r="104.5" stroke="#0E0E0E"/>
<circle cx="310" cy="310" r="91.5" stroke="#0E0E0E"/>
<circle cx="310" cy="310" r="87.5" stroke="#0E0E0E"/>
<circle cx="310" cy="310" r="83.5" stroke="#0E0E0E"/>
<circle cx="310" cy="310" r="219" stroke="black" stroke-width="2"/>
<circle cx="310" cy="310" r="194" stroke="black" stroke-width="2"/>
<circle cx="310" cy="310" r="168" stroke="black" stroke-width="2"/>
<circle cx="310" cy="310" r="142" stroke="black" stroke-width="2"/>
<circle cx="310" cy="310" r="250" fill="url(#paint1_linear_2_6)"/>
<circle cx="310.5" cy="310.5" r="44" stroke="#E32138" stroke-width="73"/>
<circle cx="310.5" cy="310.5" r="17.5" stroke="#B31A2C" stroke-width="20"/>
<circle cx="310.5" cy="310.5" r="27" stroke="#80131F"/>
<mask id="mask0_2_6" style="mask-type:alpha" maskUnits="userSpaceOnUse" x="60" y="60" width="500" height="500">
<circle cx="310" cy="310" r="250" fill="#D9D9D9"/>
</mask>
<g mask="url(#mask0_2_6)">
<g filter="url(#filter1_f_2_6)">
<mask id="path-17-inside-1_2_6" fill="white">
<path d="M435 93.4936C463.432 109.909 488.352 131.763 508.338 157.81C528.324 183.856 542.984 213.583 551.481 245.295C559.979 277.007 562.146 310.082 557.861 342.632C553.576 375.181 542.922 406.568 526.506 435L331.651 322.5C333.292 319.657 334.358 316.518 334.786 313.263C335.215 310.008 334.998 306.701 334.148 303.53C333.298 300.358 331.832 297.386 329.834 294.781C327.835 292.176 325.343 289.991 322.5 288.349L435 93.4936Z"/>
</mask>
<path d="M435 93.4936C463.432 109.909 488.352 131.763 508.338 157.81C528.324 183.856 542.984 213.583 551.481 245.295C559.979 277.007 562.146 310.082 557.861 342.632C553.576 375.181 542.922 406.568 526.506 435L331.651 322.5C333.292 319.657 334.358 316.518 334.786 313.263C335.215 310.008 334.998 306.701 334.148 303.53C333.298 300.358 331.832 297.386 329.834 294.781C327.835 292.176 325.343 289.991 322.5 288.349L435 93.4936Z" stroke="black" stroke-width="340" mask="url(#path-17-inside-1_2_6)"/>
</g>
<g filter="url(#filter2_f_2_6)">
<mask id="path-18-inside-2_2_6" fill="white">
<path d="M185 526.506C127.579 493.354 85.6793 438.75 68.5186 374.705C51.3578 310.66 60.3416 242.421 93.4936 185L288.349 297.5C285.034 303.242 284.136 310.066 285.852 316.47C287.568 322.875 291.758 328.335 297.5 331.651L185 526.506Z"/>
</mask>
<path d="M185 526.506C127.579 493.354 85.6793 438.75 68.5186 374.705C51.3578 310.66 60.3416 242.421 93.4936 185L288.349 297.5C285.034 303.242 284.136 310.066 285.852 316.47C287.568 322.875 291.758 328.335 297.5 331.651L185 526.506Z" stroke="black" stroke-width="340" mask="url(#path-18-inside-2_2_6)"/>
</g>
</g>
<circle cx="310" cy="310" r="80" fill="url(#paint2_linear_2_6)"/>
</g>
<defs>
<filter id="filter0_d_2_6" x="0" y="0" width="620" height="620" filterUnits="userSpaceOnUse" color-interpolation-filters="sRGB">
<feFlood flood-opacity="0" result="BackgroundImageFix"/>
<feColorMatrix in="SourceAlpha" type="matrix" values="0 0 0 0 0 0 0 0 0 0 0 0 0 0 0 0 0 0 127 0" result="hardAlpha"/>
<feOffset/>
<feGaussianBlur stdDeviation="30"/>
<feComposite in2="hardAlpha" operator="out"/>
<feColorMatrix type="matrix" values="0 0 0 0 1 0 0 0 0 1 0 0 0 0 1 0 0 0 0.2 0"/>
<feBlend mode="normal" in2="BackgroundImageFix" result="effect1_dropShadow_2_6"/>
<feBlend mode="normal" in="SourceGraphic" in2="effect1_dropShadow_2_6" result="shape"/>
</filter>
<filter id="filter1_f_2_6" x="222.5" y="-6.50635" width="437.5" height="541.506" filterUnits="userSpaceOnUse" color-interpolation-filters="sRGB">
<feFlood flood-opacity="0" result="BackgroundImageFix"/>
<feBlend mode="normal" in="SourceGraphic" in2="BackgroundImageFix" result="shape"/>
<feGaussianBlur stdDeviation="50" result="effect1_foregroundBlur_2_6"/>
</filter>
<filter id="filter2_f_2_6" x="-40.0006" y="85.0002" width="437.501" height="541.506" filterUnits="userSpaceOnUse" color-interpolation-filters="sRGB">
<feFlood flood-opacity="0" result="BackgroundImageFix"/>
<feBlend mode="normal" in="SourceGraphic" in2="BackgroundImageFix" result="shape"/>
<feGaussianBlur stdDeviation="50" result="effect1_foregroundBlur_2_6"/>
</filter>
<linearGradient id="paint0_linear_2_6" x1="185" y1="435" x2="60" y2="560" gradientUnits="userSpaceOnUse">
<stop/>
<stop offset="1" stop-color="#E32138"/>
</linearGradient>
<linearGradient id="paint1_linear_2_6" x1="391.5" y1="287.5" x2="227" y2="330" gradientUnits="userSpaceOnUse">
<stop stop-color="#0E0E0E" stop-opacity="0"/>
<stop offset="0.493721" stop-color="#F1FBFF" stop-opacity="0.42"/>
<stop offset="1" stop-opacity="0"/>
</linearGradient>
<linearGradient id="paint2_linear_2_6" x1="336.08" y1="302.8" x2="283.44" y2="316.4" gradientUnits="userSpaceOnUse">
<stop stop-color="#0E0E0E" stop-opacity="0"/>
<stop offset="0.493721" stop-color="white" stop-opacity="0.12"/>
<stop offset="1" stop-opacity="0"/>
</linearGradient>
</defs>
</svg>
